# xmcd
#
# Track frame offsets:
#  150
#  16138
#  29098
#  47351
#  58418
#  72178
#  84567
#  93916
#  107520
#  120775
#  132896
#  145890
#  157579
#  168946
#  182128
#  215612
#
# Disc length: 3204 seconds
#
# Revision: 0
# Processed by: cddbd v1.5.1PL2 Copyright (c) Steve Scherf et al.
# Submitted via: Collectorz.com_Music_Collector 6.9
#
DISCID=cc0c8210
DTITLE=Various Artist - Soul Train [CD1]
DYEAR=1900
DGENRE=Soul
TTITLE0=Rufus Thomas - If There Were No Music
TTITLE1=Mary Wells - My Guy
TTITLE2=Brook Benton - Rainy Night In Georgia
TTITLE3=The Tymes - My Babe
TTITLE4=Ike Turner - Tina Turner - It's Gonne Work Out Fine
TTITLE5=Jerry Butler - He Will Break Your Heart
TTITLE6=Al Jarreau - Ain't No Sunshine
TTITLE7=Eddie Floyd - Knock On Wood
TTITLE8=Clarence Carter - Patches
TTITLE9=The Platters - (You've Got) That Magic Touch
TTITLE10=Percy Sledge - When A Man Loves A Woman
TTITLE11=The Tams - Hey Girl Don't Bother Me
TTITLE12=Lee Dorsey - Working In A Coal Mine
TTITLE13=The Drifters - On Broadway
TTITLE14=Rufus Thomas - Get Up Offa That Funk
TTITLE15=George Williams - That's How Friends Should Be
EXTD=
EXTT0=
EXTT1=
EXTT2=
EXTT3=
EXTT4=
EXTT5=
EXTT6=
EXTT7=
EXTT8=
EXTT9=
EXTT10=
EXTT11=
EXTT12=
EXTT13=
EXTT14=
EXTT15=
PLAYORDER=
